<svg width="16" height="27" viewBox="0 0 16 27" fill="none" xmlns="http://www.w3.org/2000/svg">
<path d="M14.4586 0.00560788L10.9635 0C7.03689 0 4.4993 2.60347 4.4993 6.63301V9.69127H0.985122C0.681452 9.69127 0.435547 9.93745 0.435547 10.2411V14.6722C0.435547 14.9759 0.681733 15.2218 0.985122 15.2218H4.4993V26.4028C4.4993 26.7065 4.74521 26.9524 5.04888 26.9524H9.63389C9.93756 26.9524 10.1835 26.7062 10.1835 26.4028V15.2218H14.2924C14.596 15.2218 14.8419 14.9759 14.8419 14.6722L14.8436 10.2411C14.8436 10.0953 14.7856 9.95569 14.6827 9.85249C14.5798 9.7493 14.4396 9.69127 14.2938 9.69127H10.1835V7.09874C10.1835 5.85268 10.4804 5.2201 12.1036 5.2201L14.4581 5.21926C14.7615 5.21926 15.0074 4.97307 15.0074 4.66968V0.55518C15.0074 0.252075 14.7617 0.00616867 14.4586 0.00560788Z" fill="#E8A5B7"/>
</svg>
