<svg width="31" height="21" viewBox="0 0 31 21" fill="none" xmlns="http://www.w3.org/2000/svg">
<path d="M29.7547 1.10389C28.6371 -0.185827 26.5737 -0.711914 22.633 -0.711914H8.32825C4.29736 -0.711914 2.19896 -0.151899 1.08555 1.22118C0 2.55997 0 4.53255 0 7.26263V12.4662C0 17.7552 1.288 20.4407 8.32825 20.4407H22.633C26.0503 20.4407 27.944 19.9765 29.1691 18.8382C30.4255 17.6711 30.9615 15.7654 30.9615 12.4662V7.26263C30.9615 4.38352 30.8775 2.39932 29.7547 1.10389ZM19.8775 10.5828L13.3817 13.8784C13.2365 13.9521 13.0776 13.9887 12.919 13.9887C12.7395 13.9887 12.5603 13.9417 12.4016 13.8485C12.1028 13.6727 11.9203 13.3583 11.9203 13.0191V6.44898C11.9203 6.11039 12.1023 5.79627 12.4005 5.62039C12.6988 5.44452 13.0698 5.4325 13.3794 5.58859L19.8752 8.86298C20.2057 9.02956 20.4131 9.36076 20.4136 9.72211C20.4141 10.0838 20.2074 10.4155 19.8775 10.5828Z" fill="#E2E1E1"/>
</svg>
