<svg width="17" height="30" viewBox="0 0 17 30" fill="none" xmlns="http://www.w3.org/2000/svg">
<path d="M15.4854 0.00604089L11.769 0C7.59371 0 4.89543 2.80449 4.89543 7.14517V10.4396H1.15872C0.835818 10.4396 0.574341 10.7048 0.574341 11.0319V15.8051C0.574341 16.1323 0.836117 16.3971 1.15872 16.3971H4.89543V28.4415C4.89543 28.7686 5.15691 29.0335 5.47981 29.0335H10.3552C10.6781 29.0335 10.9396 28.7683 10.9396 28.4415V16.3971H15.3087C15.6315 16.3971 15.893 16.1323 15.893 15.8051L15.8948 11.0319C15.8948 10.8748 15.8331 10.7244 15.7237 10.6132C15.6143 10.5021 15.4652 10.4396 15.3101 10.4396H10.9396V7.64687C10.9396 6.30459 11.2553 5.62317 12.9813 5.62317L15.4849 5.62226C15.8075 5.62226 16.0689 5.35706 16.0689 5.03025V0.598048C16.0689 0.271539 15.8078 0.00664498 15.4854 0.00604089Z" fill="#E2E1E1"/>
</svg>
