<svg width="30" height="24" viewBox="0 0 30 24" fill="none" xmlns="http://www.w3.org/2000/svg">
<path d="M29.5903 2.93308C28.4444 3.42437 27.2982 3.73118 26.1528 3.85441C27.4465 3.08071 28.3217 1.98765 28.7776 0.575327C27.5941 1.27523 26.3314 1.75407 24.9886 2.0121C23.8055 0.759417 22.3518 0.132812 20.6267 0.132812C18.9756 0.132812 17.5682 0.713018 16.4033 1.87369C15.2392 3.03431 14.657 4.43734 14.657 6.08299C14.657 6.52505 14.7062 6.97963 14.8048 7.44628C12.3651 7.32348 10.0765 6.71251 7.9386 5.61331C5.80081 4.51399 3.9865 3.04942 2.49569 1.21954C1.95353 2.14045 1.68237 3.14155 1.68237 4.22229C1.68237 5.24166 1.92258 6.18744 2.40337 7.05945C2.88383 7.93131 3.53085 8.63741 4.3441 9.17787C3.38287 9.14097 2.48344 8.88913 1.64572 8.42242V8.49609C1.64572 9.93314 2.09853 11.1948 3.00404 12.282C3.90968 13.3692 5.05255 14.0535 6.43243 14.3361C5.91488 14.471 5.39112 14.5386 4.86138 14.5386C4.51636 14.5386 4.14052 14.5079 3.73398 14.4469C4.11592 15.638 4.81828 16.6171 5.84082 17.3851C6.86354 18.1526 8.02178 18.5483 9.31557 18.5735C7.1471 20.2679 4.67669 21.1153 1.9044 21.1153C1.37449 21.1153 0.894087 21.0912 0.462769 21.0419C3.23514 22.8224 6.29079 23.7128 9.62991 23.7128C11.7492 23.7128 13.7391 23.3785 15.5989 22.709C17.4599 22.0399 19.0491 21.1432 20.3677 20.0192C21.6859 18.8955 22.8226 17.6029 23.7775 16.1415C24.7323 14.6799 25.4436 13.154 25.9122 11.5636C26.3803 9.97288 26.6144 8.3797 26.6144 6.78282C26.6144 6.43891 26.6082 6.18113 26.5958 6.0091C27.7668 5.16208 28.7647 4.1364 29.5903 2.93308Z" fill="#E2E1E1"/>
</svg>
