<svg width="33" height="20" viewBox="0 0 33 20" fill="none" xmlns="http://www.w3.org/2000/svg">
<path d="M32.5661 17.4654C32.527 17.3813 32.4904 17.3113 32.4564 17.2553C31.8948 16.2474 30.8219 15.0101 29.238 13.5432L29.2045 13.5096L29.1877 13.4931L29.1707 13.4763H29.1537C28.4348 12.7932 27.9796 12.3339 27.789 12.0988C27.4402 11.6509 27.3621 11.1974 27.5528 10.7381C27.6873 10.391 28.1933 9.65796 29.0692 8.53804C29.5299 7.94449 29.8948 7.46881 30.1645 7.11042C32.1081 4.53488 32.9507 2.88907 32.6921 2.17237L32.5918 2.00488C32.5244 1.90405 32.3502 1.8118 32.0695 1.72768C31.7885 1.64373 31.4291 1.62985 30.9909 1.6858L26.1381 1.71921C26.0595 1.69144 25.9471 1.69403 25.801 1.72768C25.6549 1.76133 25.5818 1.7782 25.5818 1.7782L25.4972 1.82027L25.4303 1.87081C25.3741 1.90422 25.3123 1.96299 25.2449 2.047C25.1776 2.13071 25.1216 2.22897 25.0767 2.34091C24.5484 3.6958 23.9476 4.95551 23.2736 6.11998C22.8579 6.81434 22.4761 7.4161 22.1275 7.92561C21.7793 8.43496 21.4871 8.81022 21.2515 9.05079C21.0153 9.29157 20.8025 9.48447 20.6109 9.63019C20.42 9.77597 20.2741 9.83756 20.173 9.81501C20.0719 9.7925 19.9767 9.77015 19.8864 9.74779C19.7292 9.64695 19.6028 9.50983 19.5076 9.33628C19.4116 9.16274 19.3473 8.9443 19.3136 8.68115C19.28 8.41783 19.2603 8.19135 19.2546 8.00091C19.2493 7.81073 19.2517 7.5417 19.2632 7.19461C19.2748 6.84734 19.28 6.61237 19.28 6.48918C19.28 6.06362 19.2884 5.60176 19.3051 5.10347C19.322 4.60518 19.3358 4.21039 19.3473 3.91953C19.3588 3.62837 19.3641 3.32036 19.3641 2.99562C19.3641 2.67088 19.3442 2.4162 19.3051 2.23138C19.2664 2.04676 19.207 1.86758 19.1288 1.69386C19.0498 1.52031 18.9345 1.38605 18.7833 1.29076C18.6315 1.19557 18.4431 1.12003 18.2187 1.06391C17.6233 0.9296 16.865 0.856947 15.9437 0.845651C13.8543 0.823297 12.5118 0.95778 11.9164 1.24893C11.6805 1.37194 11.467 1.54001 11.2762 1.75262C11.0739 1.99906 11.0457 2.13353 11.1917 2.15565C11.8658 2.25632 12.343 2.49711 12.6239 2.87778L12.7252 3.07952C12.8039 3.22505 12.8825 3.48272 12.9612 3.85217C13.0397 4.22162 13.0904 4.63031 13.1127 5.07799C13.1688 5.89553 13.1688 6.59538 13.1127 7.17754C13.0565 7.75995 13.0034 8.21335 12.9527 8.53809C12.902 8.86283 12.8262 9.12596 12.7252 9.32745C12.6239 9.52901 12.5566 9.65219 12.5228 9.6969C12.4891 9.74162 12.461 9.7698 12.4387 9.78085C12.2927 9.83662 12.1408 9.86504 11.9837 9.86504C11.8263 9.86504 11.6354 9.78654 11.4108 9.62973C11.1862 9.47287 10.9531 9.25746 10.7116 8.98307C10.47 8.70865 10.1976 8.32512 9.89415 7.83249C9.59096 7.33985 9.27639 6.75762 8.9506 6.0858L8.68105 5.59858C8.51255 5.28513 8.28238 4.82873 7.99028 4.22979C7.69802 3.63061 7.43969 3.05104 7.21511 2.49116C7.12534 2.25601 6.99048 2.07701 6.81077 1.95382L6.72645 1.90328C6.67037 1.85858 6.58036 1.8111 6.4569 1.76049C6.33325 1.70997 6.20423 1.67374 6.0693 1.65143L1.45224 1.68484C0.980432 1.68484 0.66032 1.79139 0.491754 2.00417L0.424296 2.10482C0.390596 2.16089 0.373596 2.25044 0.373596 2.37367C0.373596 2.49687 0.407298 2.64806 0.474757 2.82707C1.14876 4.40605 1.88174 5.92884 2.67366 7.39567C3.46558 8.86254 4.15376 10.0441 4.73775 10.9394C5.32187 11.8353 5.91728 12.6808 6.52394 13.4756C7.13059 14.2707 7.53217 14.7802 7.72866 15.004C7.92536 15.2283 8.07987 15.396 8.19218 15.5079L8.61353 15.9109C8.88314 16.1798 9.27903 16.5017 9.80142 16.8767C10.3239 17.2519 10.9024 17.6213 11.5371 17.9855C12.1719 18.3493 12.9104 18.6459 13.753 18.8755C14.5955 19.1051 15.4156 19.1974 16.2133 19.1529H18.1511C18.544 19.119 18.8418 18.996 19.0442 18.7833L19.1113 18.6992C19.1564 18.6323 19.1986 18.5286 19.2374 18.3886C19.2769 18.2488 19.2965 18.0947 19.2965 17.9269C19.285 17.4454 19.3217 17.0115 19.4058 16.6254C19.4899 16.2392 19.5855 15.948 19.6926 15.752C19.7996 15.556 19.9204 15.3907 20.0548 15.2567C20.1894 15.1224 20.2853 15.0411 20.3418 15.013C20.3977 14.9849 20.4423 14.9658 20.476 14.9543C20.7456 14.8647 21.063 14.9515 21.4283 15.2148C21.7935 15.478 22.1361 15.8029 22.4564 16.189C22.7767 16.5756 23.1613 17.0093 23.6105 17.4906C24.0602 17.9722 24.4533 18.3301 24.79 18.5655L25.1268 18.7672C25.352 18.9015 25.6441 19.0249 26.0035 19.1368C26.3626 19.2487 26.6769 19.2767 26.9469 19.2208L31.2604 19.1537C31.6873 19.1537 32.0191 19.0832 32.2546 18.9435C32.4906 18.8035 32.6308 18.6494 32.6759 18.4817C32.7211 18.3139 32.7235 18.1233 32.6845 17.9103C32.6445 17.6978 32.6052 17.5493 32.5661 17.4654Z" fill="#E2E1E1"/>
</svg>
