<svg width="28" height="23" viewBox="0 0 28 23" fill="none" xmlns="http://www.w3.org/2000/svg">
<path d="M27.7758 3.36425C26.7155 3.82033 25.6549 4.10515 24.595 4.21955C25.7921 3.5013 26.6019 2.48659 27.0238 1.1755C25.9287 1.82524 24.7602 2.26975 23.5177 2.50929C22.423 1.3464 21.0779 0.764709 19.4816 0.764709C17.9538 0.764709 16.6515 1.30333 15.5735 2.3808C14.4964 3.45823 13.9577 4.76069 13.9577 6.28838C13.9577 6.69875 14.0032 7.12075 14.0945 7.55395C11.837 7.43995 9.71927 6.87278 7.74103 5.85237C5.76288 4.83184 4.08407 3.47225 2.70459 1.77354C2.20292 2.62844 1.95201 3.55778 1.95201 4.56105C1.95201 5.50735 2.17428 6.38534 2.61916 7.19485C3.06374 8.00422 3.66244 8.6597 4.41496 9.16142C3.52552 9.12716 2.69325 8.89337 1.9181 8.46012V8.52851C1.9181 9.86255 2.33709 11.0338 3.17498 12.0431C4.01298 13.0523 5.07051 13.6875 6.34734 13.9499C5.86844 14.0751 5.38379 14.1379 4.89361 14.1379C4.57436 14.1379 4.22658 14.1094 3.85041 14.0528C4.20382 15.1585 4.85373 16.0674 5.7999 16.7804C6.74625 17.4928 7.81799 17.8602 9.01516 17.8835C7.00863 19.4565 4.72272 20.2432 2.15746 20.2432C1.66713 20.2432 1.22259 20.2208 0.823486 20.1751C3.38882 21.8279 6.21628 22.6544 9.30603 22.6544C11.267 22.6544 13.1083 22.3441 14.8293 21.7226C16.5513 21.1015 18.0218 20.2691 19.2419 19.2256C20.4616 18.1825 21.5135 16.9825 22.3971 15.6259C23.2806 14.269 23.9388 12.8526 24.3724 11.3762C24.8055 9.89944 25.0221 8.42046 25.0221 6.93805C25.0221 6.61878 25.0164 6.37948 25.005 6.21979C26.0884 5.43348 27.0119 4.48132 27.7758 3.36425Z" fill="#E8A5B7"/>
</svg>
