<svg width="31" height="18" viewBox="0 0 31 18" fill="none" xmlns="http://www.w3.org/2000/svg">
<path d="M29.906 15.7836C29.8698 15.7055 29.836 15.6405 29.8046 15.5886C29.2849 14.6529 28.2921 13.5043 26.8265 12.1426L26.7955 12.1114L26.7799 12.0961L26.7642 12.0804H26.7485C26.0833 11.4463 25.6621 11.0199 25.4857 10.8017C25.1629 10.3859 25.0907 9.96494 25.2671 9.53848C25.3916 9.21626 25.8599 8.5358 26.6703 7.49615C27.0966 6.94515 27.4343 6.50357 27.6838 6.17087C29.4823 3.77994 30.262 2.2521 30.0226 1.58677L29.9299 1.43129C29.8674 1.33769 29.7062 1.25205 29.4466 1.17396C29.1866 1.09602 28.854 1.08314 28.4485 1.13508L23.9581 1.1661C23.8854 1.14032 23.7813 1.14272 23.6462 1.17396C23.511 1.2052 23.4434 1.22086 23.4434 1.22086L23.3651 1.25991L23.3031 1.30683C23.2512 1.33785 23.194 1.39241 23.1316 1.47039C23.0693 1.5481 23.0175 1.63931 22.9759 1.74323C22.4871 3.001 21.9312 4.17042 21.3075 5.25142C20.9228 5.89601 20.5696 6.45464 20.247 6.92763C19.9248 7.40046 19.6545 7.74882 19.4364 7.97215C19.2179 8.19567 19.0209 8.37475 18.8437 8.51002C18.6671 8.64535 18.5321 8.70253 18.4385 8.68159C18.345 8.66069 18.2568 8.63995 18.1733 8.61919C18.0278 8.52558 17.9109 8.39829 17.8227 8.23718C17.734 8.07608 17.6744 7.87329 17.6433 7.62901C17.6121 7.38456 17.5939 7.17431 17.5886 6.99753C17.5837 6.82098 17.5859 6.57123 17.5966 6.24902C17.6074 5.92664 17.6121 5.70851 17.6121 5.59416C17.6121 5.1991 17.6199 4.77034 17.6353 4.30777C17.6511 3.8452 17.6638 3.47871 17.6744 3.2087C17.685 2.93841 17.69 2.65248 17.69 2.35102C17.69 2.04955 17.6715 1.81313 17.6353 1.64155C17.5996 1.47017 17.5446 1.30383 17.4722 1.14256C17.3992 0.981449 17.2924 0.856821 17.1525 0.768356C17.0121 0.679987 16.8377 0.609864 16.6301 0.557765C16.0792 0.433086 15.3775 0.36564 14.525 0.355154C12.5917 0.334402 11.3494 0.459246 10.7985 0.729524C10.5802 0.843718 10.3826 0.999746 10.206 1.19712C10.0189 1.42589 9.99278 1.55072 10.1279 1.57126C10.7517 1.66471 11.1932 1.88824 11.4532 2.24162L11.5468 2.4289C11.6197 2.564 11.6924 2.8032 11.7652 3.14617C11.8379 3.48913 11.8848 3.86853 11.9055 4.28412C11.9573 5.04306 11.9573 5.69274 11.9055 6.23317C11.8534 6.77384 11.8043 7.19474 11.7574 7.4962C11.7104 7.79766 11.6403 8.04193 11.5468 8.22898C11.4532 8.41609 11.3908 8.53044 11.3596 8.57194C11.3284 8.61346 11.3024 8.63962 11.2818 8.64988C11.1467 8.70165 11.0062 8.72803 10.8607 8.72803C10.7151 8.72803 10.5385 8.65517 10.3306 8.50959C10.1228 8.36398 9.90714 8.16401 9.6836 7.90928C9.46008 7.65453 9.208 7.2985 8.92723 6.84118C8.64669 6.38385 8.35561 5.84336 8.05415 5.21969L7.80473 4.76739C7.64881 4.47641 7.43583 4.05273 7.16555 3.49672C6.89512 2.94049 6.65607 2.40246 6.44827 1.88271C6.3652 1.66442 6.24042 1.49825 6.07413 1.38389L5.9961 1.33698C5.94421 1.29548 5.86092 1.2514 5.74668 1.20442C5.63226 1.15752 5.51288 1.12388 5.38802 1.10317L1.11577 1.13419C0.679193 1.13419 0.382987 1.23311 0.22701 1.43063L0.164589 1.52407C0.133406 1.57612 0.117676 1.65924 0.117676 1.77365C0.117676 1.88801 0.148861 2.02837 0.211282 2.19454C0.834951 3.66034 1.51319 5.07398 2.24597 6.43567C2.97875 7.79739 3.61554 8.89428 4.15592 9.72537C4.69641 10.557 5.24735 11.342 5.80872 12.0798C6.37006 12.8179 6.74165 13.2909 6.92347 13.4987C7.10548 13.7069 7.24845 13.8625 7.35237 13.9664L7.74225 14.3406C7.99173 14.5901 8.35806 14.8889 8.84144 15.2371C9.32491 15.5854 9.86018 15.9283 10.4475 16.2665C11.0349 16.6041 11.7183 16.8795 12.4979 17.0927C13.2775 17.3058 14.0363 17.3914 14.7744 17.3501H16.5676C16.9311 17.3187 17.2067 17.2045 17.3939 17.0071L17.456 16.9289C17.4978 16.8668 17.5369 16.7706 17.5728 16.6407C17.6093 16.5109 17.6274 16.3678 17.6274 16.212C17.6168 15.7651 17.6507 15.3623 17.7286 15.0038C17.8064 14.6453 17.8949 14.375 17.994 14.193C18.0929 14.0111 18.2047 13.8577 18.3291 13.7332C18.4536 13.6086 18.5424 13.533 18.5946 13.507C18.6464 13.4809 18.6877 13.4631 18.7188 13.4525C18.9683 13.3694 19.262 13.4499 19.6 13.6944C19.938 13.9386 20.255 14.2403 20.5513 14.5987C20.8477 14.9576 21.2036 15.3602 21.6193 15.807C22.0354 16.2541 22.3991 16.5863 22.7107 16.8049L23.0223 16.9921C23.2307 17.1168 23.501 17.2313 23.8336 17.3352C24.1658 17.4391 24.4566 17.4651 24.7065 17.4132L28.6979 17.3509C29.0929 17.3509 29.3999 17.2855 29.6178 17.1557C29.8362 17.0258 29.9659 16.8827 30.0077 16.7271C30.0495 16.5712 30.0517 16.3943 30.0156 16.1966C29.9786 15.9993 29.9423 15.8615 29.906 15.7836Z" fill="#E8A5B7"/>
</svg>
