<svg width="29" height="21" viewBox="0 0 29 21" fill="none" xmlns="http://www.w3.org/2000/svg">
<path d="M27.3408 2.30154C26.3139 1.0808 24.4178 0.582855 20.7968 0.582855H7.65261C3.94873 0.582855 2.02057 1.11292 0.997485 2.41255C0 3.67973 0 5.54679 0 8.13085V13.0561C0 18.0622 1.18351 20.604 7.65261 20.604H20.7968C23.9369 20.604 25.677 20.1647 26.8027 19.0872C27.9572 17.9826 28.4497 16.1789 28.4497 13.0561V8.13085C28.4497 5.40574 28.3726 3.52767 27.3408 2.30154ZM18.2649 11.2734L12.2961 14.3928C12.1626 14.4625 12.0167 14.4971 11.8709 14.4971C11.7059 14.4971 11.5413 14.4527 11.3955 14.3644C11.1209 14.1981 10.9532 13.9004 10.9532 13.5794V7.36072C10.9532 7.04024 11.1204 6.74292 11.3945 6.57645C11.6686 6.40998 12.0095 6.39861 12.2939 6.54635L18.2628 9.6456C18.5665 9.80326 18.7571 10.1167 18.7575 10.4588C18.758 10.8011 18.5681 11.115 18.2649 11.2734Z" fill="#E8A5B7"/>
</svg>
